# xmcd
#
# Track frame offsets:
#	150
#	19780
#	39862
#	50290
#	73685
#	92920
#	108222
#	124647
#	145657
#	165715
#	180597
#	201192
#	216825
#	233765
#
# Disc length: 3278 seconds
#
# Revision: 5
# Processed by: cddbd v1.5.1PL0 Copyright (c) Steve Scherf et al.
# Submitted via: EasyCDDAExtractor 7.0.5.1
#
DISCID=b80ccc0e
DTITLE=Ahmet Özhan - Rüya
DYEAR=2003
DGENRE=Pop
TTITLE0=Rüya Gibi Uçan Yýllar
TTITLE1=Artýk Bu Solan Bahcede
TTITLE2=Yesil Gözlerinden Muhabbet Kaptim
TTITLE3=Seni Aþksýz Birakmam
TTITLE4=Nar Tanem
TTITLE5=Sonbahar Vurgunu
TTITLE6=Elbet Bir Gün Bulusacagiz
TTITLE7=Biraz Kul Biraz Duman
TTITLE8=Ýnan Ýnan Ki
TTITLE9=Yarab
TTITLE10=Bak Yeþil Yeþil
TTITLE11=Bir Gönül Vardi Bende
TTITLE12=Yemin Ettim
TTITLE13=Sariyerli
EXTD=YEAR: 2003 ID3G: 24
EXTT0=
EXTT1=
EXTT2=
EXTT3=
EXTT4=
EXTT5=
EXTT6=
EXTT7=
EXTT8=
EXTT9=
EXTT10=
EXTT11=
EXTT12=
EXTT13=
PLAYORDER=
